# xmcd
# Track frame offsets:
# 150
# 12001
# 25843
# 35381
# 49630
# 60217
# 70432
# 89254
# 108140
# 117274
# 135447
# 148512
#
# Disc length: 2151 seconds
# Revision: 0
# Processed by: cddbd v1.5.1PL2 Copyright (c) Steve Scherf et al.
# Submitted via: VisiTrax 2.10.0.248 - For more info visit www.synapsa.com
#
DISCID=9008650c
DTITLE=Willie Nelson - Just One Love
DYEAR=1900
DGENRE=
TTITLE0=Just One Love
TTITLE1=Each Night At Nine
TTITLE2=This Cold War With You
TTITLE3=Better Left Forgotten
TTITLE4=It's A Sin
TTITLE5=Four Walls
TTITLE6=Smoke Smoke Smoke (That Cigarette)
TTITLE7=I Just Dropped By
TTITLE8=Cold Cold Heart
TTITLE9=Bonaparte's Retreat
TTITLE10=Alabam
TTITLE11=Eight More Miles To Louisville
EXTD=
EXTT0=
EXTT1=
EXTT2=
EXTT3=
EXTT4=
EXTT5=
EXTT6=
EXTT7=
EXTT8=
EXTT9=
EXTT10=
EXTT11=
PLAYORDER=
